C:/Users/Proprietaire/Desktop/ffmpeg/(récent) ffmpeg-2021-05-30-git-51f1194eda-full_build/bin/ffmpeg.exe -hide_banner -y -v debug -r 8 -start_number 0 -start_number_range 1 -i C:/Users/Proprietaire/Desktop/Cours/LP JV 2023-24/Projet Tutoré/anim/exports-tests/image%04d.png -vf palettegen=stats_mode=full:reserve_transparent=1 -y C:/Users/Proprietaire/Desktop/Cours/LP JV 2023-24/Projet Tutoré/anim/exports-tests/KritaTempPalettegen_%06d.png 
=====================================================
Splitting the commandline.
Reading option '-hide_banner' ... matched as option 'hide_banner' (do not show program banner) with argument '1'.
Reading option '-y' ... matched as option 'y' (overwrite output files) with argument '1'.
Reading option '-v' ... matched as option 'v' (set logging level) with argument 'debug'.
Reading option '-r' ... matched as option 'r' (set frame rate (Hz value, fraction or abbreviation)) with argument '8'.
Reading option '-start_number' ... matched as AVOption 'start_number' with argument '0'.
Reading option '-start_number_range' ... matched as AVOption 'start_number_range' with argument '1'.
Reading option '-i' ... matched as input url with argument 'C:/Users/Proprietaire/Desktop/Cours/LP JV 2023-24/Projet Tutoré/anim/exports-tests/image%04d.png'.
Reading option '-vf' ... matched as option 'vf' (set video filters) with argument 'palettegen=stats_mode=full:reserve_transparent=1'.
Reading option '-y' ... matched as option 'y' (overwrite output files) with argument '1'.
Reading option 'C:/Users/Proprietaire/Desktop/Cours/LP JV 2023-24/Projet Tutoré/anim/exports-tests/KritaTempPalettegen_%06d.png' ... matched as output url.
Finished splitting the commandline.
Parsing a group of options: global .
Applying option hide_banner (do not show program banner) with argument 1.
Applying option y (overwrite output files) with argument 1.
Applying option v (set logging level) with argument debug.
Applying option y (overwrite output files) with argument 1.
Successfully parsed a group of options.
Parsing a group of options: input url C:/Users/Proprietaire/Desktop/Cours/LP JV 2023-24/Projet Tutoré/anim/exports-tests/image%04d.png.
Applying option r (set frame rate (Hz value, fraction or abbreviation)) with argument 8.
Successfully parsed a group of options.
Opening an input file: C:/Users/Proprietaire/Desktop/Cours/LP JV 2023-24/Projet Tutoré/anim/exports-tests/image%04d.png.
[image2 @ 000001c11b4aea00] Opening 'C:/Users/Proprietaire/Desktop/Cours/LP JV 2023-24/Projet Tutoré/anim/exports-tests/image0000.png' for reading
[file @ 000001c11b4b2780] Setting default whitelist 'file,crypto,data'
[AVIOContext @ 000001c11b4ba900] Statistics: 1030321 bytes read, 0 seeks
[image2 @ 000001c11b4aea00] Opening 'C:/Users/Proprietaire/Desktop/Cours/LP JV 2023-24/Projet Tutoré/anim/exports-tests/image0001.png' for reading
[file @ 000001c11b66bb80] Setting default whitelist 'file,crypto,data'
[AVIOContext @ 000001c11b66c240] Statistics: 947397 bytes read, 0 seeks
[image2 @ 000001c11b4aea00] Opening 'C:/Users/Proprietaire/Desktop/Cours/LP JV 2023-24/Projet Tutoré/anim/exports-tests/image0002.png' for reading
[file @ 000001c11b66c240] Setting default whitelist 'file,crypto,data'
[AVIOContext @ 000001c11b7538c0] Statistics: 973684 bytes read, 0 seeks
[image2 @ 000001c11b4aea00] Opening 'C:/Users/Proprietaire/Desktop/Cours/LP JV 2023-24/Projet Tutoré/anim/exports-tests/image0003.png' for reading
[file @ 000001c11d9bdd40] Setting default whitelist 'file,crypto,data'
[AVIOContext @ 000001c11d9be680] Statistics: 1024691 bytes read, 0 seeks
[image2 @ 000001c11b4aea00] Opening 'C:/Users/Proprietaire/Desktop/Cours/LP JV 2023-24/Projet Tutoré/anim/exports-tests/image0004.png' for reading
[file @ 000001c11d9be680] Setting default whitelist 'file,crypto,data'
[AVIOContext @ 000001c11dab8b00] Statistics: 1014193 bytes read, 0 seeks
[image2 @ 000001c11b4aea00] Opening 'C:/Users/Proprietaire/Desktop/Cours/LP JV 2023-24/Projet Tutoré/anim/exports-tests/image0005.png' for reading
[file @ 000001c11dab8b00] Setting default whitelist 'file,crypto,data'
[AVIOContext @ 000001c11b753940] Statistics: 976111 bytes read, 0 seeks
[image2 @ 000001c11b4aea00] Probe buffer size limit of 5000000 bytes reached
Input #0, image2, from 'C:/Users/Proprietaire/Desktop/Cours/LP JV 2023-24/Projet Tutoré/anim/exports-tests/image%04d.png':
  Duration: 00:00:00.32, start: 0.000000, bitrate: N/A
  Stream #0:0, 6, 1/25: Video: png, 1 reference frame, rgba(pc), 3508x2480 [SAR 11811:11811 DAR 877:620], 0/1, 25 fps, 25 tbr, 25 tbn
Successfully opened the file.
Parsing a group of options: output url C:/Users/Proprietaire/Desktop/Cours/LP JV 2023-24/Projet Tutoré/anim/exports-tests/KritaTempPalettegen_%06d.png.
Applying option vf (set video filters) with argument palettegen=stats_mode=full:reserve_transparent=1.
Successfully parsed a group of options.
Opening an output file: C:/Users/Proprietaire/Desktop/Cours/LP JV 2023-24/Projet Tutoré/anim/exports-tests/KritaTempPalettegen_%06d.png.
Successfully opened the file.
detected 8 logical cores
Stream mapping:
  Stream #0:0 -> #0:0 (png (native) -> png (native))
Press [q] to stop, [?] for help
cur_dts is invalid st:0 (0) [init:0 i_done:0 finish:0] (this is harmless if it occurs once at the start per stream)
    Last message repeated 6 times
[image2 @ 000001c11b4aea00] Opening 'C:/Users/Proprietaire/Desktop/Cours/LP JV 2023-24/Projet Tutoré/anim/exports-tests/image0006.png' for reading
[file @ 000001c11d9bdd40] Setting default whitelist 'file,crypto,data'
[AVIOContext @ 000001c11b4c8bc0] Statistics: 972015 bytes read, 0 seeks
cur_dts is invalid st:0 (0) [init:0 i_done:0 finish:0] (this is harmless if it occurs once at the start per stream)
[image2 @ 000001c11b4aea00] Opening 'C:/Users/Proprietaire/Desktop/Cours/LP JV 2023-24/Projet Tutoré/anim/exports-tests/image0007.png' for reading
[file @ 000001c11d9bdd40] Setting default whitelist 'file,crypto,data'
[AVIOContext @ 000001c11b4c8bc0] Statistics: 1000504 bytes read, 0 seeks
cur_dts is invalid st:0 (0) [init:0 i_done:0 finish:0] (this is harmless if it occurs once at the start per stream)
[Parsed_palettegen_0 @ 000001c11b4c0100] Setting 'stats_mode' to value 'full'
[Parsed_palettegen_0 @ 000001c11b4c0100] Setting 'reserve_transparent' to value '1'
[graph 0 input from stream 0:0 @ 000001c11b4bff00] Setting 'video_size' to value '3508x2480'
[graph 0 input from stream 0:0 @ 000001c11b4bff00] Setting 'pix_fmt' to value '26'
[graph 0 input from stream 0:0 @ 000001c11b4bff00] Setting 'time_base' to value '1/8'
[graph 0 input from stream 0:0 @ 000001c11b4bff00] Setting 'pixel_aspect' to value '11811/11811'
[graph 0 input from stream 0:0 @ 000001c11b4bff00] Setting 'frame_rate' to value '8/1'
[graph 0 input from stream 0:0 @ 000001c11b4bff00] w:3508 h:2480 pixfmt:rgba tb:1/8 fr:8/1 sar:11811/11811
[format @ 000001c11b4c0d00] Setting 'pix_fmts' to value 'rgb24|rgba|rgb48be|rgba64be|pal8|gray|ya8|gray16be|ya16be|monob'
[auto_scaler_0 @ 000001c11b4c1100] Setting 'flags' to value 'bicubic'
[auto_scaler_0 @ 000001c11b4c1100] w:iw h:ih flags:'bicubic' interl:0
[Parsed_palettegen_0 @ 000001c11b4c0100] auto-inserting filter 'auto_scaler_0' between the filter 'graph 0 input from stream 0:0' and the filter 'Parsed_palettegen_0'
[auto_scaler_1 @ 000001c11b4c0800] Setting 'flags' to value 'bicubic'
[auto_scaler_1 @ 000001c11b4c0800] w:iw h:ih flags:'bicubic' interl:0
[format @ 000001c11b4c0d00] auto-inserting filter 'auto_scaler_1' between the filter 'Parsed_palettegen_0' and the filter 'format'
[AVFilterGraph @ 000001c11dab8b00] query_formats: 4 queried, 1 merged, 2 already done, 0 delayed
[auto_scaler_1 @ 000001c11b4c0800] picking rgba out of 10 ref:bgra alpha:1
[swscaler @ 000001c11b54ce40] Forcing full internal H chroma due to input having non subsampled chroma
[auto_scaler_0 @ 000001c11b4c1100] w:3508 h:2480 fmt:rgba sar:11811/11811 -> w:3508 h:2480 fmt:bgra sar:1/1 flags:0x4
[swscaler @ 000001c1285fa640] Forcing full internal H chroma due to input having non subsampled chroma
[auto_scaler_1 @ 000001c11b4c0800] w:16 h:16 fmt:bgra sar:1/1 -> w:16 h:16 fmt:rgba sar:1/1 flags:0x4
cur_dts is invalid st:0 (0) [init:0 i_done:0 finish:0] (this is harmless if it occurs once at the start per stream)
    Last message repeated 7 times
[Parsed_palettegen_0 @ 000001c11b4c0100] 255(+1) colors generated out of 256 colors; ratio=0.996094
cur_dts is invalid st:0 (0) [init:0 i_done:0 finish:0] (this is harmless if it occurs once at the start per stream)
Output #0, image2, to 'C:/Users/Proprietaire/Desktop/Cours/LP JV 2023-24/Projet Tutoré/anim/exports-tests/KritaTempPalettegen_%06d.png':
  Metadata:
    encoder         : Lavf59.2.101
  Stream #0:0, 0, 1/8: Video: png, 1 reference frame, rgba(pc, progressive), 16x16 (0x0) [SAR 1:1 DAR 1:1], 0/1, q=2-31, 200 kb/s, 8 fps, 8 tbn
    Metadata:
      encoder         : Lavc59.1.100 png
Clipping frame in rate conversion by 0.000008
frame=    1 fps=0.0 q=0.0 size=N/A time=00:00:00.00 bitrate=N/A speed=   0x    cur_dts is invalid st:0 (0) [init:1 i_done:0 finish:0] (this is harmless if it occurs once at the start per stream)
[out_0_0 @ 000001c11b4bf700] EOF on sink link out_0_0:default.
No more output streams to write to, finishing.
[image2 @ 000001c11b66bfc0] Opening 'C:/Users/Proprietaire/Desktop/Cours/LP JV 2023-24/Projet Tutoré/anim/exports-tests/KritaTempPalettegen_000001.png' for writing
[file @ 000001c11b767f00] Setting default whitelist 'file,crypto,data'
[AVIOContext @ 000001c11b764680] Statistics: 0 seeks, 1 writeouts
frame=    1 fps=0.0 q=-0.0 Lsize=N/A time=00:00:00.12 bitrate=N/A speed=0.165x    
video:1kB audio:0kB subtitle:0kB other streams:0kB global headers:0kB muxing overhead: unknown
Input file #0 (C:/Users/Proprietaire/Desktop/Cours/LP JV 2023-24/Projet Tutoré/anim/exports-tests/image%04d.png):
  Input stream #0:0 (video): 8 packets read (7938916 bytes); 8 frames decoded; 
  Total: 8 packets (7938916 bytes) demuxed
Output file #0 (C:/Users/Proprietaire/Desktop/Cours/LP JV 2023-24/Projet Tutoré/anim/exports-tests/KritaTempPalettegen_%06d.png):
  Output stream #0:0 (video): 1 frames encoded; 1 packets muxed (1032 bytes); 
  Total: 1 packets (1032 bytes) muxed
8 frames successfully decoded, 0 decoding errors
Input #0, image2, from 'C:/Users/Proprietaire/Desktop/Cours/LP JV 2023-24/Projet Tutoré/anim/exports-tests/image%04d.png':
  Duration: 00:00:00.32, start: 0.000000, bitrate: N/A
  Stream #0:0: Video: png, rgba(pc), 3508x2480 [SAR 11811:11811 DAR 877:620], 25 fps, 25 tbr, 25 tbn
Input #1, image2, from 'C:/Users/Proprietaire/Desktop/Cours/LP JV 2023-24/Projet Tutoré/anim/exports-tests/KritaTempPalettegen_%06d.png':
  Duration: 00:00:00.04, start: 0.000000, bitrate: N/A
  Stream #1:0: Video: png, rgba(pc), 16x16 [SAR 1:1 DAR 1:1], 25 fps, 25 tbr, 25 tbn
Stream mapping:
  Stream #0:0 (png) -> paletteuse:default
  Stream #1:0 (png) -> paletteuse:palette
  paletteuse -> Stream #0:0 (gif)
Press [q] to stop, [?] for help
Output #0, gif, to 'C:/Users/Proprietaire/Desktop/Cours/LP JV 2023-24/Projet Tutoré/anim/exports-tests/walk-front-anim.gif':
  Metadata:
    encoder         : Lavf59.2.101
  Stream #0:0: Video: gif, pal8(pc, progressive), 3508x2480 [SAR 1:1 DAR 877:620], q=2-31, 200 kb/s, 8 fps, 100 tbn (default)
    Metadata:
      encoder         : Lavc59.1.100 gif
frame=    1 fps=0.0 q=-0.0 size=       0kB time=00:00:00.01 bitrate=   0.0kbits/s speed=0.0544x    frame=    2 fps=0.0 q=-0.0 size=     512kB time=00:00:00.14 bitrate=29959.3kbits/s speed=0.162x    frame=    5 fps=3.2 q=-0.0 size=    2304kB time=00:00:00.51 bitrate=37008.6kbits/s speed=0.329x    frame=    7 fps=3.2 q=-0.0 size=    3584kB time=00:00:00.76 bitrate=38631.7kbits/s speed=0.35x    frame=    8 fps=2.9 q=-0.0 size=    4096kB time=00:00:00.89 bitrate=37701.6kbits/s speed=0.321x    frame=    8 fps=2.9 q=-0.0 Lsize=    4797kB time=00:00:00.89 bitrate=44150.9kbits/s speed=0.321x    
video:4797kB audio:0kB subtitle:0kB other streams:0kB global headers:0kB muxing overhead: 0.000407%
